<svg width="340" height="96" viewBox="0 0 340 96" fill="none" xmlns="http://www.w3.org/2000/svg">
<mask id="mask0_1262_2777" style="mask-type:luminance" maskUnits="userSpaceOnUse" x="0" y="0" width="340" height="96">
<path d="M339.125 0H0.125V96H339.125V0Z" fill="white"/>
</mask>
<g mask="url(#mask0_1262_2777)">
<path d="M72.6659 70.4878L72.5459 70.3678L72.4859 70.3078C72.3659 70.2478 72.0059 69.8878 71.2859 69.4678C69.9059 70.1878 68.2859 70.8478 66.3659 71.5078C61.8059 73.0678 55.6259 74.2678 48.1259 74.2678C40.9859 74.2678 35.1059 73.1878 30.6059 71.7478C28.3859 71.0278 26.5259 70.2478 25.0259 69.4678C24.3059 69.9478 23.9459 70.2478 23.8259 70.3078L23.7059 70.4278L23.6459 70.4878C17.5259 75.5878 18.3659 82.3678 19.0259 85.0078C19.6259 87.5278 20.8259 89.8078 22.3259 91.7278C29.6459 94.4278 38.4659 95.9278 48.1859 95.9278C57.9059 95.9278 66.7259 94.4278 74.0459 91.7278C75.5459 89.8678 76.7459 87.5278 77.3459 85.0078C77.9459 82.3678 78.7859 75.5878 72.6659 70.4878Z" fill="url(#paint0_linear_1262_2777)"/>
<path opacity="0.6" d="M96.1237 66.5267C96.1237 60.8867 93.9037 55.7267 89.8837 51.3467C88.5637 52.4267 87.1837 53.5067 85.6837 54.4667C80.5237 57.7667 74.2837 60.2267 67.2637 61.8467C71.5837 63.4067 74.4037 65.2667 75.5437 66.5267C82.6237 72.4067 83.7637 81.1067 81.2437 88.4267C90.5437 83.1467 96.1237 75.4667 96.1237 66.5267Z" fill="#8E72FF"/>
<path d="M18.9654 10.8472C18.3054 13.5472 17.4654 20.2672 23.5854 25.3672L23.7054 25.4872L23.7654 25.5472C23.8854 25.6072 24.2454 25.9672 24.9654 26.3872C26.4654 25.6072 28.3854 24.8272 30.6054 24.1072C35.1054 22.6672 40.9854 21.5872 48.1254 21.5872C55.6854 21.5872 61.8054 22.7872 66.3654 24.3472C68.2854 25.0072 69.9054 25.6672 71.2854 26.3872C72.0054 25.9072 72.3654 25.6072 72.4854 25.5472L72.6054 25.4272L72.6654 25.3672C78.7854 20.2672 77.9454 13.4872 77.2854 10.8472C76.6854 8.32725 75.4854 6.04725 73.9854 4.12725C66.6654 1.42725 57.8454 -0.0727539 48.1254 -0.0727539C38.4054 -0.0727539 29.5854 1.42725 22.2654 4.12725C20.7654 6.04725 19.5654 8.32725 18.9654 10.8472Z" fill="url(#paint1_linear_1262_2777)"/>
<path d="M81.185 7.42725C83.765 14.7472 82.625 23.4472 75.485 29.3272C73.325 31.7872 65.045 36.2872 51.665 37.0072C51.545 37.0072 51.485 37.0072 51.365 37.0072C50.945 37.0072 50.585 37.0672 50.165 37.0672C49.985 37.0672 49.865 37.0672 49.685 37.0672C49.145 37.0672 48.605 37.0672 48.125 37.0672C31.385 37.1272 18.365 41.3272 10.085 47.9272C4.985 51.9472 1.625 56.9272 0.485 62.5072C0.485 62.5672 0.485 62.5672 0.485 62.6272C0.425 63.0472 0.365 63.4072 0.305 63.8272C0.305 63.8872 0.305 63.9472 0.305 64.0072C0.245 64.3672 0.245 64.7872 0.185 65.2072C0.185 65.2672 0.185 65.3272 0.185 65.3872C0.185 65.8072 0.125 66.2272 0.125 66.6472C0.125 75.5872 5.705 83.2672 15.065 88.5472C12.485 81.2872 13.625 72.5872 20.765 66.6472C22.925 64.1872 31.205 59.6872 44.525 58.9672C44.645 58.9672 44.765 58.9672 44.885 58.9672C45.245 58.9672 45.605 58.9072 46.025 58.9072C46.205 58.9072 46.385 58.9072 46.565 58.9072C47.045 58.9072 47.465 58.9072 47.945 58.9072C48.005 58.9072 48.065 58.9072 48.125 58.9072C64.865 58.9072 77.885 54.6472 86.165 48.1072C91.265 44.0872 94.625 39.1072 95.705 33.5272C95.705 33.4672 95.705 33.4672 95.705 33.4072C95.765 32.9872 95.825 32.6272 95.885 32.2072C95.885 32.1472 95.885 32.0872 95.885 32.0272C95.945 31.6672 95.945 31.2472 96.005 30.8272C96.005 30.7672 96.005 30.7072 96.005 30.6472C96.005 30.2272 96.065 29.8072 96.065 29.3872C96.125 20.3872 90.545 12.7072 81.185 7.42725Z" fill="#8E72FF"/>
<path opacity="0.6" d="M28.985 34.0673C24.665 32.5073 21.845 30.6473 20.705 29.3873C13.625 23.5073 12.485 14.8073 15.005 7.4873C5.705 12.7073 0.125 20.3873 0.125 29.3273C0.125 34.9673 2.345 40.1273 6.365 44.5073C7.685 43.4273 9.065 42.3473 10.565 41.3873C15.785 38.0873 21.965 35.6273 28.985 34.0673Z" fill="#8E72FF"/>
<path d="M172.985 31.9677L143.525 63.7677H172.985V71.8077H132.125V63.7677L161.585 31.9677H132.125V23.8677H172.985V31.9677Z" fill="black"/>
<path d="M203.044 73.0069C198.664 73.0069 194.584 71.8669 191.044 69.6469C187.384 67.4269 184.504 64.3669 182.404 60.4669C180.244 56.6869 179.164 52.4269 179.164 47.8069C179.164 44.3269 179.764 40.9669 181.024 37.9069C182.224 34.8469 183.964 32.2069 186.244 29.8669C188.404 27.5269 190.924 25.7869 193.864 24.4669C196.744 23.1469 199.864 22.5469 203.164 22.5469C206.704 22.5469 210.124 23.2669 213.124 24.7069C216.184 26.1469 218.704 28.1869 220.864 30.7069C223.024 33.2269 224.644 36.2869 225.664 39.7069C226.804 43.1869 227.104 46.7269 226.864 50.7469H187.744C188.164 53.5069 189.064 55.8469 190.384 58.0069C191.824 60.1669 193.564 61.7869 195.784 63.1069C197.944 64.3069 200.344 64.9669 203.104 65.0269C205.984 65.0269 208.624 64.3069 210.964 62.8069C213.304 61.3069 215.164 59.2669 216.544 56.6869L224.704 58.6069C222.784 62.8669 219.904 66.3469 216.064 68.9869C212.164 71.6869 207.844 73.0069 203.044 73.0069ZM187.504 44.5069H218.704C218.404 41.8669 217.564 39.4069 216.184 37.1869C214.744 34.9669 212.824 33.2269 210.604 31.9069C208.384 30.5869 205.804 29.8669 203.164 29.8669C200.524 29.8669 198.064 30.4669 195.844 31.7869C193.624 33.1069 191.764 34.8469 190.324 37.0669C188.704 39.1669 187.804 41.7469 187.504 44.5069Z" fill="black"/>
<path d="M273.125 -0.0727539H281.165V71.8073H273.125V63.6473C271.505 66.5273 269.345 68.7472 266.585 70.4873C263.825 72.2272 260.585 73.0072 256.925 73.0072C253.445 73.0072 250.205 72.4072 247.145 71.0872C244.085 69.7673 241.445 67.9072 239.105 65.6872C236.765 63.3472 234.905 60.7073 233.705 57.6473C232.385 54.5872 231.785 51.3472 231.785 47.8672C231.785 44.3872 232.385 41.1472 233.705 38.0872C235.025 35.0272 236.885 32.3872 239.105 30.0472C241.445 27.7072 244.085 25.9672 247.145 24.6472C250.205 23.3272 253.445 22.7272 256.925 22.7272C260.585 22.7272 263.885 23.5672 266.585 25.2472C269.345 26.9872 271.505 29.2072 273.125 32.0872V-0.0727539ZM256.985 65.2673C260.165 65.2673 262.925 64.4272 265.265 62.9272C267.605 61.4272 269.345 59.2673 270.665 56.6272C271.865 53.9872 272.585 51.0472 272.585 47.8672C272.585 44.6272 271.985 41.6272 270.665 38.9872C269.345 36.3472 267.605 34.3072 265.265 32.6872C262.925 31.1872 260.285 30.3472 257.105 30.3472C253.925 30.3472 251.105 31.1872 248.525 32.6872C246.005 34.1872 243.965 36.3472 242.405 38.9872C240.905 41.6272 240.065 44.5672 240.065 47.7472C240.065 50.9873 240.905 53.8672 242.405 56.5073C243.905 59.1473 246.065 61.1873 248.645 62.8073C251.105 64.4873 253.925 65.2673 256.985 65.2673Z" fill="black"/>
<path d="M330.787 23.8672H338.827V71.8073H330.787L330.487 63.7672C328.987 66.5272 326.947 68.7472 324.247 70.4872C321.607 72.2272 318.427 73.0073 314.887 73.0073C311.407 73.0073 308.047 72.2872 304.987 70.9672C301.927 69.6472 299.167 67.7872 296.827 65.4472C294.487 63.1072 292.627 60.3472 291.307 57.2872C289.987 54.2272 289.387 50.8672 289.387 47.3872C289.387 43.9072 289.987 40.7872 291.307 37.7272C292.627 34.6672 294.367 32.0272 296.587 29.7472C298.807 27.5272 301.507 25.6672 304.567 24.3472C307.627 23.0272 310.807 22.4272 314.227 22.4272C318.007 22.4272 321.247 23.3272 324.127 25.0672C327.007 26.8072 329.227 29.1472 331.087 31.9072L330.787 23.8672ZM314.707 65.2672C317.887 65.2672 320.647 64.4272 322.987 62.9272C325.327 61.4272 327.067 59.2672 328.387 56.6272C329.587 53.9872 330.307 51.0472 330.307 47.8672C330.307 44.6272 329.707 41.6272 328.387 38.9872C327.067 36.3472 325.327 34.3072 322.987 32.6872C320.647 31.1872 318.007 30.3472 314.827 30.3472C311.647 30.3472 308.827 31.1872 306.187 32.6872C303.667 34.1872 301.507 36.3472 300.067 38.9872C298.627 41.6272 297.847 44.5672 297.847 47.7472C297.847 50.9872 298.687 53.8672 300.187 56.5072C301.687 59.1472 303.847 61.1872 306.427 62.8073C308.767 64.4873 311.647 65.2672 314.707 65.2672Z" fill="black"/>
</g>
<defs>
<linearGradient id="paint0_linear_1262_2777" x1="18.5703" y1="82.6978" x2="77.7599" y2="82.6978" gradientUnits="userSpaceOnUse">
<stop stop-color="#453195"/>
<stop offset="1" stop-color="#8E72FF"/>
</linearGradient>
<linearGradient id="paint1_linear_1262_2777" x1="77.7408" y1="13.1572" x2="18.5097" y2="13.1572" gradientUnits="userSpaceOnUse">
<stop stop-color="#453195"/>
<stop offset="1" stop-color="#8E72FF"/>
</linearGradient>
</defs>
</svg>
