<svg width="48" height="48" viewBox="0 0 48 48" fill="none" xmlns="http://www.w3.org/2000/svg">
<rect width="48" height="48" rx="8" fill="black"/>
<path d="M32.1751 31.5187L32.1352 31.4787L32.1152 31.4587C32.0752 31.4387 31.9552 31.3187 31.7152 31.1787C31.2552 31.4187 30.7153 31.6387 30.0753 31.8587C28.5554 32.3786 26.4955 32.7786 23.9957 32.7786C21.6159 32.7786 19.656 32.4186 18.1561 31.9387C17.4162 31.6987 16.7962 31.4387 16.2963 31.1787C16.0563 31.3387 15.9363 31.4387 15.8963 31.4587L15.8563 31.4987L15.8363 31.5187C13.7964 33.2186 14.0764 35.4784 14.2964 36.3584C14.4964 37.1983 14.8964 37.9582 15.3963 38.5982C17.8361 39.4981 20.7759 39.9981 24.0157 39.9981C27.2555 39.9981 30.1953 39.4981 32.6351 38.5982C33.1351 37.9782 33.5351 37.1983 33.735 36.3584C33.935 35.4784 34.215 33.2186 32.1751 31.5187Z" fill="url(#paint0_linear_843_3286)"/>
<path opacity="0.6" d="M39.9982 30.1983C39.9982 28.3184 39.2583 26.5986 37.9184 25.1387C37.4784 25.4986 37.0184 25.8586 36.5185 26.1786C34.7986 27.2785 32.7187 28.0985 30.3789 28.6384C31.8188 29.1584 32.7587 29.7783 33.1387 30.1983C35.4985 32.1582 35.8785 35.058 35.0386 37.4978C38.1384 35.7379 39.9982 33.1781 39.9982 30.1983Z" fill="#8E72FF"/>
<path d="M14.2808 11.6397C14.0608 12.5397 13.7808 14.7795 15.8207 16.4794L15.8607 16.5194L15.8807 16.5394C15.9207 16.5594 16.0406 16.6794 16.2806 16.8194C16.7806 16.5594 17.4205 16.2994 18.1605 16.0594C19.6604 15.5795 21.6203 15.2195 24.0001 15.2195C26.5199 15.2195 28.5598 15.6195 30.0797 16.1394C30.7196 16.3594 31.2596 16.5794 31.7196 16.8194C31.9595 16.6594 32.0795 16.5594 32.1195 16.5394L32.1595 16.4994L32.1795 16.4794C34.2194 14.7795 33.9394 12.5197 33.7194 11.6397C33.5194 10.7998 33.1195 10.0399 32.6195 9.3999C30.1797 8.49997 27.2399 8 24.0001 8C20.7603 8 17.8205 8.49997 15.3807 9.3999C14.8807 10.0399 14.4808 10.7998 14.2808 11.6397Z" fill="url(#paint1_linear_843_3286)"/>
<path d="M35.0181 10.5C35.8781 12.9398 35.4981 15.8396 33.1183 17.7995C32.3983 18.6194 29.6385 20.1193 25.1788 20.3593C25.1388 20.3593 25.1188 20.3593 25.0788 20.3593C24.9388 20.3593 24.8188 20.3793 24.6788 20.3793C24.6188 20.3793 24.5788 20.3793 24.5189 20.3793C24.3389 20.3793 24.1589 20.3793 23.9989 20.3793C18.4193 20.3993 14.0796 21.7992 11.3198 23.9991C9.61989 25.339 8.49997 26.9989 8.11999 28.8587C8.11999 28.8787 8.11999 28.8787 8.11999 28.8987C8.09999 29.0387 8.07999 29.1587 8.06 29.2987C8.06 29.3187 8.06 29.3387 8.06 29.3587C8.04 29.4787 8.04 29.6187 8.02 29.7587C8.02 29.7787 8.02 29.7987 8.02 29.8187C8.02 29.9586 8 30.0986 8 30.2386C8 33.2184 9.85987 35.7782 12.9797 37.5381C12.1197 35.1183 12.4997 32.2185 14.8795 30.2386C15.5995 29.4187 18.3593 27.9188 22.799 27.6788C22.839 27.6788 22.879 27.6788 22.919 27.6788C23.039 27.6788 23.1589 27.6588 23.2989 27.6588C23.3589 27.6588 23.4189 27.6588 23.4789 27.6588C23.6389 27.6588 23.7789 27.6588 23.9389 27.6588C23.9589 27.6588 23.9789 27.6588 23.9989 27.6588C29.5785 27.6588 33.9182 26.2389 36.678 24.0591C38.3779 22.7192 39.4978 21.0593 39.8578 19.1994C39.8578 19.1794 39.8578 19.1794 39.8578 19.1594C39.8778 19.0194 39.8978 18.8994 39.9178 18.7594C39.9178 18.7394 39.9178 18.7194 39.9178 18.6994C39.9378 18.5794 39.9378 18.4394 39.9578 18.2995C39.9578 18.2795 39.9578 18.2595 39.9578 18.2395C39.9578 18.0995 39.9778 17.9595 39.9778 17.8195C39.9978 14.8197 38.1379 12.2599 35.0181 10.5Z" fill="#8E72FF"/>
<path opacity="0.6" d="M17.6193 19.3794C16.1794 18.8594 15.2395 18.2395 14.8595 17.8195C12.4997 15.8596 12.1197 12.9598 12.9597 10.52C9.85987 12.2599 8 14.8197 8 17.7995C8 19.6794 8.73995 21.3993 10.0799 22.8592C10.5198 22.4992 10.9798 22.1392 11.4798 21.8192C13.2196 20.7193 15.2795 19.8994 17.6193 19.3794Z" fill="#8E72FF"/>
<defs>
<linearGradient id="paint0_linear_843_3286" x1="14.1445" y1="35.5884" x2="33.873" y2="35.5884" gradientUnits="userSpaceOnUse">
<stop stop-color="#453195"/>
<stop offset="1" stop-color="#8E72FF"/>
</linearGradient>
<linearGradient id="paint1_linear_843_3286" x1="33.8712" y1="12.4097" x2="14.1289" y2="12.4097" gradientUnits="userSpaceOnUse">
<stop stop-color="#453195"/>
<stop offset="1" stop-color="#8E72FF"/>
</linearGradient>
</defs>
</svg>
